<svg xmlns="http://www.w3.org/2000/svg" width="84.53" height="84.469" viewBox="0 0 84.53 84.469"><path d="M71.84,40.393c-5.423,0-12.206,1.4-17.527,2.742a8.609,8.609,0,0,0-.751-1.848c4.712-2.8,10.5-6.6,14.318-10.439,7.454-7.454,9.81-12.917,7.637-15.09a2.8,2.8,0,0,0-2.092-.772c-2.8,0-7.312,2.722-13,8.408-3.818,3.818-7.637,9.586-10.439,14.3a9.328,9.328,0,0,0-1.848-.772C49.5,31.6,50.88,24.836,50.88,19.433c0-10.541-2.193-16.065-5.281-16.065s-5.281,5.524-5.281,16.065c0,5.4,1.381,12.186,2.742,17.487a8.674,8.674,0,0,0-1.848.772c-2.8-4.712-6.6-10.48-10.439-14.3-5.687-5.687-10.216-8.408-13-8.408a2.887,2.887,0,0,0-2.092.772c-2.193,2.193.162,7.637,7.637,15.09,3.839,3.839,9.607,7.637,14.318,10.439a9.274,9.274,0,0,0-.751,1.848c-5.321-1.361-12.1-2.742-17.527-2.742-10.521,0-15.984,2.153-15.984,5.24S8.838,50.954,19.4,50.954c5.423,0,12.227-1.4,17.548-2.762a8.513,8.513,0,0,0,.772,1.828c-4.732,2.8-10.521,6.621-14.359,10.46-7.454,7.454-9.81,12.917-7.637,15.09a2.8,2.8,0,0,0,2.092.772c2.8,0,7.312-2.722,13-8.408,3.839-3.839,7.677-9.647,10.48-14.379a9.093,9.093,0,0,0,1.828.751c-1.361,5.321-2.762,12.145-2.762,17.568,0,10.541,2.193,15.964,5.281,15.964s5.281-5.423,5.281-15.964c0-5.443-1.4-12.247-2.762-17.568a8.888,8.888,0,0,0,1.828-.751c2.8,4.732,6.621,10.541,10.48,14.379,5.687,5.687,10.216,8.408,13,8.408a2.887,2.887,0,0,0,2.092-.772c2.193-2.193-.162-7.637-7.637-15.09-3.839-3.839-9.647-7.657-14.359-10.46a9.148,9.148,0,0,0,.772-1.828c5.321,1.361,12.125,2.762,17.548,2.762,10.541,0,16.025-2.193,16.025-5.281C87.864,42.586,82.4,40.393,71.84,40.393Z" transform="translate(-3.375 -3.368)" fill="#0077b6"/><path d="M25.681,30.383a51.887,51.887,0,0,1-5.037-5.991,53.246,53.246,0,0,1,.67,7.8,58.038,58.038,0,0,1-.325,6.519c2.5,4.428,4.935,6.641,6.905,6.641a2.573,2.573,0,0,0,.955-.183c2.234-.914,2.7-4.732.914-11.028C28.463,33.064,27.1,31.8,25.681,30.383Z" transform="translate(29.237 36.335)" fill="#0077b6"/><path d="M17.025,19.369a52.968,52.968,0,0,1,5,5.93,52.819,52.819,0,0,1-.65-7.758,58.036,58.036,0,0,1,.325-6.519C19.2,6.594,16.761,4.38,14.791,4.38a2.573,2.573,0,0,0-.955.183c-2.234.914-2.7,4.732-.914,11.028C14.222,16.688,15.6,17.948,17.025,19.369Z" transform="translate(12.587 -1.456)" fill="#0077b6"/><path d="M19.339,25.695a51.887,51.887,0,0,1,5.991-5.037,53.246,53.246,0,0,1-7.8.67A58.038,58.038,0,0,1,11.012,21c-5.179,2.925-7.332,5.727-6.459,7.86.528,1.3,2.051,2.011,4.488,2.011a24.5,24.5,0,0,0,6.54-1.1C16.678,28.477,17.917,27.116,19.339,25.695Z" transform="translate(-1.507 29.284)" fill="#0077b6"/><path d="M30.369,17.013a51.887,51.887,0,0,1-5.991,5.037,53.246,53.246,0,0,1,7.8-.67A58.036,58.036,0,0,1,38.7,21.7c5.179-2.925,7.332-5.727,6.459-7.86-.528-1.3-2.051-2.011-4.488-2.011a24.5,24.5,0,0,0-6.54,1.1C33.029,14.25,31.79,15.611,30.369,17.013Z" transform="translate(36.288 12.62)" fill="#0077b6"/><path d="M17.389,30.37a59.9,59.9,0,0,1-4.834,4.387c-1.584,5.727-1.117,9.221,1,10.135a2.425,2.425,0,0,0,1,.2c2.092,0,4.712-2.437,7.454-7.352-.142-1.706-.223-3.554-.223-5.545a53.246,53.246,0,0,1,.67-7.8A55.753,55.753,0,0,1,17.389,30.37Z" transform="translate(12.182 36.349)" fill="#0077b6"/><path d="M25.694,19.23a59.349,59.349,0,0,1,4.813-4.367c1.6-5.768,1.158-9.3-.975-10.2a2.426,2.426,0,0,0-1-.2c-2.092,0-4.712,2.437-7.454,7.352.142,1.706.223,3.554.223,5.545a54.287,54.287,0,0,1-.67,7.86A56.044,56.044,0,0,1,25.694,19.23Z" transform="translate(29.224 -1.296)" fill="#0077b6"/><path d="M11.82,22.008c1.706-.142,3.554-.223,5.545-.223a52.979,52.979,0,0,1,7.779.67,53.392,53.392,0,0,1-5.971-5.037,60.824,60.824,0,0,1-4.407-4.854,22.67,22.67,0,0,0-5.809-.934c-2.315,0-3.778.67-4.306,1.929C3.716,15.773,6.092,18.819,11.82,22.008Z" transform="translate(-1.34 12.234)" fill="#0077b6"/><path d="M37.721,21.1c-1.706.142-3.554.223-5.545.223a53.246,53.246,0,0,1-7.8-.67,54.011,54.011,0,0,1,5.991,5.037,63.966,63.966,0,0,1,4.387,4.834,22.076,22.076,0,0,0,5.809.955c2.315,0,3.778-.67,4.306-1.929C45.825,27.319,43.448,24.293,37.721,21.1Z" transform="translate(36.288 29.284)" fill="#0077b6"/></svg>