<svg xmlns="http://www.w3.org/2000/svg" width="69.426" height="53.999" viewBox="0 0 69.426 53.999"><path d="M69.2,32.187l-5.466-21.9A10.6,10.6,0,0,0,50.088,2.8l-1.838.612a1.927,1.927,0,0,0-1.22,2.44l.61,1.83A1.928,1.928,0,0,0,50.078,8.9l1.589-.529a5.154,5.154,0,0,1,4,.209,4.776,4.776,0,0,1,2.455,3.112l4.636,18.54a33.356,33.356,0,0,0-9.787-1.5,31.615,31.615,0,0,0-13.843,3.223H30.3A31.585,31.585,0,0,0,16.46,28.725a33.359,33.359,0,0,0-9.788,1.5l4.636-18.541a4.772,4.772,0,0,1,2.456-3.111,5.151,5.151,0,0,1,4-.209l1.587.529a1.928,1.928,0,0,0,2.438-1.22l.61-1.83a1.927,1.927,0,0,0-1.22-2.44l-1.838-.612A10.6,10.6,0,0,0,5.694,10.283L.229,32.187A7.74,7.74,0,0,0,0,34.054v8.467A13.807,13.807,0,0,0,13.885,56.248h4.474a13.822,13.822,0,0,0,13.847-12.7l.353-4.656h4.309l.353,4.656a13.82,13.82,0,0,0,13.845,12.7H55.54A13.807,13.807,0,0,0,69.426,42.522V34.055A7.742,7.742,0,0,0,69.2,32.187ZM24.513,42.964a6.134,6.134,0,0,1-6.154,5.57H13.885a6.1,6.1,0,0,1-6.171-6.013V38a26.165,26.165,0,0,1,8.748-1.557A23.648,23.648,0,0,1,24.891,38l-.377,4.968Zm37.2-.442a6.1,6.1,0,0,1-6.171,6.012H51.066a6.132,6.132,0,0,1-6.154-5.57L44.535,38a23.656,23.656,0,0,1,8.431-1.557A26.163,26.163,0,0,1,61.71,38v4.525Z" transform="translate(0 -2.25)" fill="#0077b6"/></svg>