<svg xmlns="http://www.w3.org/2000/svg" width="82.112" height="82.112" viewBox="0 0 82.112 82.112"><path d="M35.6.057a35.6,35.6,0,1,0,0,71.2,35.188,35.188,0,0,0,16.885-4.17,10.172,10.172,0,0,0,1.322,1.322L63.981,78.583A10.375,10.375,0,1,0,78.628,63.936L68.456,53.764a10.173,10.173,0,0,0-1.627-1.322A35.123,35.123,0,0,0,71.3,35.556,35.641,35.641,0,0,0,35.7-.045Zm0,10.172a25.31,25.31,0,0,1,25.43,25.43,25.507,25.507,0,0,1-6.713,17.5l-.305.305a10.171,10.171,0,0,0-1.322,1.322A25.453,25.453,0,0,1,35.5,61.189a25.43,25.43,0,0,1,0-50.859Z" transform="translate(0 0.045)" fill="#0077b6"/></svg>