<svg xmlns="http://www.w3.org/2000/svg" width="13.106" height="14.978" viewBox="0 0 13.106 14.978"><path d="M12.755,4.681a.352.352,0,0,0,.351-.351V3.159a.352.352,0,0,0-.351-.351H12.17V1.4a1.4,1.4,0,0,0-1.4-1.4H1.4A1.4,1.4,0,0,0,0,1.4v12.17a1.4,1.4,0,0,0,1.4,1.4h9.361a1.4,1.4,0,0,0,1.4-1.4v-1.4h.585a.352.352,0,0,0,.351-.351v-1.17a.352.352,0,0,0-.351-.351H12.17V8.425h.585a.352.352,0,0,0,.351-.351V6.9a.352.352,0,0,0-.351-.351H12.17V4.681Zm-6.67-.936A1.872,1.872,0,1,1,4.213,5.617,1.874,1.874,0,0,1,6.085,3.745Zm3.276,6.927a.613.613,0,0,1-.655.562H3.464a.613.613,0,0,1-.655-.562V10.11A1.842,1.842,0,0,1,4.774,8.425h.146a3.013,3.013,0,0,0,2.329,0H7.4A1.842,1.842,0,0,1,9.361,10.11Z" fill="#fff"/></svg>