<svg xmlns="http://www.w3.org/2000/svg" width="23.452" height="23.454" viewBox="0 0 23.452 23.454"><path d="M0,11.374C0,4.837,5.12,0,11.725,0S23.45,4.837,23.45,11.374,18.33,22.747,11.725,22.747A12.8,12.8,0,0,1,8.334,22.3a.938.938,0,0,0-.625.049L5.374,23.373a.938.938,0,0,1-1.319-.831l-.068-2.091a.948.948,0,0,0-.313-.664A11.129,11.129,0,0,1,0,11.374Zm8.13-2.14L4.69,14.706a.551.551,0,0,0,.8.733l3.7-2.8a.69.69,0,0,1,.85,0l2.736,2.052a1.764,1.764,0,0,0,2.541-.469L18.76,8.745a.551.551,0,0,0-.8-.733l-3.7,2.8a.675.675,0,0,1-.84,0L10.679,8.765a1.759,1.759,0,0,0-2.55.469Z" transform="translate(0.001)" fill="#0077b6"/></svg>