<svg xmlns="http://www.w3.org/2000/svg" width="72" height="70.5" viewBox="0 0 72 70.5"><path d="M63.606,18.72H56.22V10.881A10.06,10.06,0,0,0,46.179.72H27.262A10.059,10.059,0,0,0,17.22,10.881V18.72H9.832A8.946,8.946,0,0,0,.72,27.625v34.51A9.1,9.1,0,0,0,9.832,71.22H63.606a9.1,9.1,0,0,0,9.114-9.086V27.625A8.948,8.948,0,0,0,63.606,18.72ZM23.22,10.881A4.332,4.332,0,0,1,27.262,6.72H46.179a4.336,4.336,0,0,1,4.041,4.161V18.72h-27Zm30,40.839H42.72v10.5h-12V51.72H20.22v-12h10.5V29.22h12v10.5h10.5v12Z" transform="translate(-0.72 -0.72)" fill="#0077b6"/></svg>